# xmcd
#
# Track frame offsets: 
#        150
#        11048
#        23338
#        36213
#        48883
#        63535
#        75893
#        86838
#        105908
#        116363
#        128818
#        139515
#        155723
#        168830
#        180680
#        195755
#
# Disc length: 2846 seconds
#
# Revision: 7
# Processed by: cddbd v1.5.2PL0 Copyright (c) Steve Scherf et al.
# Submitted via: ExactAudioCopy v1.3
#
DISCID=b50b1c10
DTITLE=Aretha Franklin - The Very Best Of Aretha Franklin Vol. 1
DYEAR=1994
DGENRE=Pop
TTITLE0=Respect
TTITLE1=Baby I Love You
TTITLE2=I Never Loved a Man (The Way I Love You)
TTITLE3=Chain of Fools
TTITLE4=Do Right Woman - Do Right Man
TTITLE5=(You Make Me Feel) Like A Natural Woman
TTITLE6=(Sweet Sweet Baby) Since You've Been Gone
TTITLE7=Ain't No Way
TTITLE8=Think
TTITLE9=See Saw
TTITLE10=The House that Jack Built
TTITLE11=I Say a Little Prayer
TTITLE12=The Weight
TTITLE13=Eleanor Rigby
TTITLE14=Share Your Love With Me
TTITLE15=Call Me
EXTD=
EXTT0=
EXTT1=
EXTT2=
EXTT3=
EXTT4=
EXTT5=
EXTT6=
EXTT7=
EXTT8=
EXTT9=
EXTT10=
EXTT11=
EXTT12=
EXTT13=
EXTT14=
EXTT15=
PLAYORDER=
